<svg width="73" height="25" viewBox="0 0 73 25" fill="none" xmlns="http://www.w3.org/2000/svg">
<path fill-rule="evenodd" clip-rule="evenodd" d="M0 0H34.2755V6.13248H0V0ZM14.0069 10.4909V25H20.2685V10.4909H14.0069V10.4909ZM73 12.5C73 11.0662 72.6866 9.70422 72.1211 8.47643C71.7288 7.62321 71.2171 6.83545 70.6045 6.13248C70.4138 5.91354 67.5208 2.89667 67.5208 2.89667C65.7226 1.04748 63.2285 0 60.6204 0H38.7245V6.13248H59.93C61.2647 6.13248 62.5414 6.66803 63.4619 7.61462L65.5319 9.74285H65.533C66.1861 10.4823 66.5806 11.4461 66.5806 12.4989C66.5806 13.5518 66.1916 14.5005 65.5483 15.2357L63.4597 17.3832C62.5392 18.3298 61.2625 18.8654 59.9278 18.8654H38.7245V24.9989H60.6171C63.2252 24.9989 65.7182 23.9525 67.5176 22.1023C67.5176 22.1023 70.4116 19.0865 70.6045 18.8654C71.2171 18.1624 71.7299 17.3736 72.1222 16.5203C72.6855 15.2936 73 13.9317 73 12.4979V12.5V12.5Z" fill="white"/>
</svg>
